<svg width="213" height="213" viewBox="0 0 213 213" fill="none" xmlns="http://www.w3.org/2000/svg">
<rect width="213" height="213" rx="18" fill="white"/>
<path d="M115.306 99.6926H69V57.3074H115.306V10H159.694V57.3074H206V99.6926H159.694V147H115.306V99.6926Z" fill="black"/>
<path d="M50.1845 132.366C33.5479 132.366 19.507 129.298 8.06192 123.163L16.9112 95.73C29.0642 100.096 39.9194 102.279 49.4766 102.279C54.6682 102.279 58.4439 101.689 60.8037 100.509C63.2815 99.2107 64.5204 97.3229 64.5204 94.8451C64.5204 93.1932 63.8715 91.7773 62.5736 90.5974C61.2757 89.2995 58.6799 87.8837 54.7862 86.3498C50.8925 84.8159 45.052 82.9281 37.2646 80.6862C27.7073 77.8545 20.2739 73.2528 14.9644 66.8813C9.65479 60.3919 7 52.9585 7 44.5811C7 31.6022 11.2477 21.8089 19.743 15.2015C28.3563 8.47601 39.9194 5.11328 54.4322 5.11328C61.9836 5.11328 69.417 5.93922 76.7324 7.59108C84.0478 9.12495 90.5373 11.4258 96.2009 14.4935L86.6436 41.2184C80.0362 38.9766 74.2546 37.3837 69.299 36.4398C64.4614 35.3779 59.7418 34.8469 55.1402 34.8469C47.3528 34.8469 43.4591 36.9707 43.4591 41.2184C43.4591 43.3422 44.698 45.1711 47.1758 46.7049C49.7716 48.1208 55.0222 49.9497 62.9275 52.1915C75.3165 55.4952 84.6968 60.5688 91.0683 67.4123C97.4398 74.1378 100.626 82.2201 100.626 91.6594C100.626 104.756 96.3779 114.845 87.8825 121.924C79.3872 128.885 66.8212 132.366 50.1845 132.366Z" fill="#929292"/>
<path d="M122.373 207.032C110.574 207.032 99.8365 204.259 90.1613 198.714C80.6041 193.05 72.9937 185.381 67.3301 175.705C61.7846 165.912 59.0118 155.116 59.0118 143.317C59.0118 131.282 61.7256 120.427 67.1531 110.752C72.5807 101.076 80.0141 93.5251 89.4533 88.0975C98.8926 82.552 109.512 79.7792 121.311 79.7792C127.682 79.7792 133.936 80.5461 140.071 82.08C146.207 83.6139 151.457 85.7967 155.823 88.6285L151.044 116.061C142.549 112.876 134.88 111.283 128.036 111.283C118.597 111.283 111.341 114.055 106.267 119.601C101.193 125.029 98.6566 132.875 98.6566 143.14C98.6566 153.169 101.311 161.016 106.621 166.679C112.049 172.225 119.541 174.998 129.098 174.998C132.756 174.998 136.178 174.644 139.363 173.936C142.549 173.228 146.443 171.93 151.044 170.042L156 198.006C145.735 204.023 134.526 207.032 122.373 207.032Z" fill="#929292"/>
</svg>
